<?xml version="1.0" standalone="no"?>
<!DOCTYPE svg PUBLIC "-//W3C//DTD SVG 20010904//EN"
 "http://www.w3.org/TR/2001/REC-SVG-20010904/DTD/svg10.dtd">
<svg version="1.0" xmlns="http://www.w3.org/2000/svg"
 width="984.000000pt" height="984.000000pt" viewBox="0 0 984.000000 984.000000"
 preserveAspectRatio="xMidYMid meet">
<metadata>
Created by potrace 1.14, written by Peter Selinger 2001-2017
</metadata>
<g transform="translate(0.000000,984.000000) scale(0.100000,-0.100000)"
fill="#000000" stroke="none">
<path d="M640 7730 c5 -17 5 -30 0 -30 -5 0 -5 -13 0 -30 5 -17 5 -30 0 -30
-5 0 -5 -13 0 -30 5 -17 5 -30 0 -30 -5 0 -5 -13 0 -30 5 -17 5 -30 0 -30 -5
0 -5 -13 0 -30 5 -17 5 -30 0 -30 -5 0 -5 -13 0 -30 5 -17 5 -30 0 -30 -5 0
-5 -13 0 -30 5 -17 5 -30 0 -30 -5 0 -5 -13 0 -30 5 -17 5 -30 0 -30 -5 0 -5
-13 0 -30 5 -17 5 -30 0 -30 -5 0 -5 -13 0 -30 5 -17 5 -32 0 -35 -5 -3 -5
-16 0 -30 6 -15 6 -27 0 -30 -5 -3 -6 -15 -1 -28 5 -12 5 -32 0 -44 -4 -12 -4
-25 1 -28 5 -3 5 -18 0 -35 -5 -18 -5 -30 1 -30 5 0 7 -11 3 -24 -5 -22 -2
-24 35 -28 23 -2 41 0 41 5 0 4 4 5 10 2 5 -3 33 -6 62 -5 99 0 123 0 185 -1
35 0 67 2 73 6 5 3 10 2 10 -2 0 -5 27 -6 60 -3 35 3 64 2 70 -4 7 -7 10 -6
10 1 0 7 11 8 34 3 19 -4 40 -4 47 1 7 4 17 5 22 2 13 -8 133 -6 146 2 6 3 11
2 11 -2 0 -5 27 -6 61 -3 33 3 62 3 64 0 4 -7 82 -3 103 5 6 2 12 1 12 -3 0
-4 27 -5 60 -2 35 3 64 2 70 -4 7 -7 10 -6 10 1 0 7 11 8 34 3 19 -4 40 -4 47
1 7 4 17 5 22 2 13 -8 133 -6 146 2 6 3 11 2 11 -2 0 -5 27 -6 61 -3 33 3 62
3 64 0 4 -7 82 -3 103 5 6 2 12 1 12 -3 0 -4 27 -5 60 -2 35 3 64 2 70 -4 7
-7 10 -6 10 3 0 7 5 9 10 6 6 -4 95 -6 198 -6 222 2 211 2 289 0 34 0 67 2 72
6 6 3 11 2 11 -2 0 -5 27 -6 61 -3 33 3 62 3 64 0 4 -7 82 -3 103 5 6 2 12 1
12 -3 0 -4 27 -5 60 -2 35 3 64 2 70 -4 7 -7 10 -6 10 3 0 7 5 9 10 6 6 -4
106 -6 223 -6 248 2 262 2 344 0 35 0 67 2 73 6 5 3 10 2 10 -3 0 -5 17 -6 40
-2 22 4 40 4 40 1 0 -4 27 -4 61 -1 33 3 62 3 64 0 4 -7 82 -3 103 5 6 2 12 1
12 -3 0 -5 244 -7 385 -2 11 0 50 0 87 -1 37 0 72 2 77 6 6 3 11 2 11 -2 0 -5
27 -6 61 -3 33 3 62 3 64 0 4 -7 82 -3 103 5 6 2 12 1 12 -3 0 -4 27 -5 60 -2
35 3 64 2 70 -4 7 -7 10 -6 10 3 0 7 5 9 10 6 6 -4 106 -6 223 -6 248 2 262 2
344 0 35 0 67 2 73 6 5 3 10 2 10 -3 0 -5 17 -6 40 -2 22 4 40 4 40 1 0 -4 27
-4 61 -1 33 3 62 3 64 0 4 -7 82 -3 103 5 6 2 12 1 12 -3 0 -5 244 -7 385 -2
11 0 50 0 87 -1 37 0 72 2 77 6 6 3 11 2 11 -2 0 -5 27 -6 61 -3 33 3 62 3 64
0 4 -7 82 -3 103 5 6 2 12 1 12 -3 0 -4 27 -5 60 -2 35 3 64 2 70 -4 7 -7 10
-6 10 1 0 7 11 8 34 3 19 -4 40 -4 47 1 7 4 17 5 21 3 4 -3 61 -7 125 -10 141
-6 190 -9 223 -17 14 -4 43 -9 65 -11 36 -5 82 -13 110 -20 179 -45 356 -122
466 -203 68 -50 169 -147 169 -162 0 -6 4 -11 9 -11 13 0 85 -114 120 -190 35
-77 76 -214 86 -291 18 -130 9 -390 -17 -484 -5 -22 -11 -44 -12 -50 -7 -30
-29 -100 -36 -114 -4 -9 -20 -41 -35 -71 -52 -108 -84 -151 -181 -245 -84 -82
-83 -81 -154 -126 -187 -117 -437 -191 -725 -215 -84 -7 -1388 -12 -1416 -6
-18 4 -30 54 -18 73 4 6 3 23 -1 38 -4 14 -4 35 0 46 4 11 4 29 0 40 -4 11 -4
31 0 45 4 14 3 34 -1 46 -4 11 -4 27 1 34 5 7 4 24 0 36 -6 14 -5 26 0 29 5 3
5 18 0 35 -5 18 -5 32 1 36 5 3 7 10 3 15 -5 9 -6 34 -3 156 1 28 -2 56 -6 62
-3 6 -1 11 5 11 6 0 8 5 5 10 -7 11 -8 79 -2 135 1 17 -1 42 -5 57 -3 15 -3
30 2 33 5 3 5 18 1 33 -4 15 -5 38 -1 52 4 14 3 36 0 50 -4 14 -4 34 0 45 4
11 4 29 0 40 -4 11 -4 31 0 45 4 14 3 34 -1 46 -4 11 -4 27 1 34 5 7 5 23 0
35 -5 12 -5 28 0 35 4 7 4 24 0 39 -4 14 -4 35 0 46 4 11 4 29 0 40 -4 11 -4
31 0 45 4 14 3 34 -1 46 -4 11 -4 27 1 34 4 7 5 23 0 34 -4 11 -4 33 0 47 4
15 4 32 0 40 -5 7 -4 21 1 31 6 11 6 18 0 18 -5 0 -7 8 -4 19 7 28 -3 32 -82
31 -11 0 -33 0 -50 -1 -16 0 -36 0 -42 0 -12 1 -89 1 -130 1 -10 0 -35 0 -57
0 -21 1 -40 -1 -43 -3 -2 -3 -17 -2 -31 2 -15 4 -39 4 -54 0 -16 -4 -28 -4
-28 1 0 4 -16 4 -34 0 -19 -4 -37 -5 -40 -2 -3 2 -45 4 -93 3 -92 -2 -99 -2
-135 -1 -13 0 -47 -1 -76 -2 -28 -2 -52 -1 -52 2 0 3 -19 4 -42 4 -42 -1 -43
-2 -43 -38 0 -20 -2 -36 -5 -36 -3 0 -5 -38 -5 -85 0 -47 3 -85 6 -85 4 0 3
-17 0 -37 -4 -21 -4 -55 -1 -75 4 -21 4 -38 1 -38 -3 0 -6 -38 -6 -85 0 -47 3
-85 6 -85 4 0 3 -17 0 -37 -4 -21 -4 -55 -1 -75 4 -21 4 -38 1 -38 -3 0 -6
-38 -6 -85 0 -47 3 -85 6 -85 4 0 3 -17 0 -37 -4 -21 -4 -55 -1 -75 4 -21 4
-38 1 -38 -3 0 -6 -38 -6 -85 0 -47 3 -85 6 -85 4 0 3 -17 0 -37 -4 -21 -4
-55 -1 -75 4 -21 4 -38 1 -38 -3 0 -6 -38 -6 -85 0 -47 3 -85 6 -85 4 0 3 -17
0 -37 -4 -21 -4 -55 -1 -75 4 -21 4 -38 1 -38 -3 0 -6 -56 -6 -125 0 -69 3
-125 6 -125 3 0 3 -20 -1 -45 -4 -25 -3 -48 2 -51 4 -3 6 -9 3 -13 -4 -7 -6
-58 -5 -133 1 -10 1 -34 1 -53 0 -19 0 -41 0 -47 0 -7 -2 -41 -3 -76 -2 -34 0
-62 3 -62 3 0 3 -20 -1 -45 -4 -25 -3 -48 2 -51 4 -3 6 -9 3 -13 -4 -7 -6 -58
-5 -133 1 -10 1 -34 1 -53 0 -19 0 -41 0 -47 0 -7 -2 -41 -3 -76 -2 -34 0 -62
3 -62 3 0 3 -20 -1 -45 -4 -25 -3 -48 2 -51 4 -3 6 -9 3 -13 -4 -7 -6 -58 -5
-133 1 -10 1 -34 1 -53 0 -19 0 -41 0 -47 0 -7 -2 -41 -3 -76 -2 -34 0 -62 3
-62 3 0 3 -20 -1 -45 -4 -25 -3 -48 2 -51 4 -3 6 -9 3 -13 -4 -7 -6 -58 -5
-133 1 -10 1 -34 1 -53 0 -19 0 -41 0 -47 0 -7 -2 -41 -3 -76 -2 -34 0 -62 3
-62 3 0 3 -20 -1 -45 -4 -25 -4 -47 -1 -50 4 -2 4 -35 1 -74 -3 -39 -2 -71 1
-71 3 0 3 -20 -1 -45 -4 -25 -4 -48 0 -50 5 -3 4 -20 0 -39 -4 -19 -4 -39 0
-46 4 -7 5 -21 3 -31 -7 -24 31 -39 69 -29 14 5 29 6 32 3 8 -8 146 -9 146 -2
0 4 16 3 35 -1 19 -4 37 -4 40 1 3 4 16 4 28 0 12 -5 34 -5 49 0 16 4 28 5 28
1 0 -8 123 -7 136 0 5 3 18 2 29 -2 11 -4 32 -4 48 1 15 4 27 5 27 1 0 -8 123
-7 136 0 5 3 18 2 29 -2 11 -4 32 -4 48 1 15 4 27 5 27 1 0 -13 130 -8 134 5
3 7 1 15 -4 18 -5 3 -5 18 0 34 4 16 6 32 3 34 -4 5 -5 35 -2 154 1 28 -2 56
-6 62 -3 6 -1 11 5 11 6 0 8 5 5 10 -7 11 -8 79 -2 135 1 17 -1 42 -5 57 -3
15 -3 30 2 33 5 3 5 18 1 33 -4 15 -5 38 -1 52 4 14 3 36 0 50 -4 14 -4 34 0
45 4 11 4 29 0 40 -4 11 -4 31 0 45 4 14 3 34 -1 46 -4 11 -4 27 1 34 5 7 4
24 0 36 -6 14 -5 26 0 29 5 3 5 18 0 35 -5 18 -5 32 1 36 5 3 7 10 3 15 -5 9
-6 34 -3 156 1 28 -2 56 -6 62 -3 6 -1 11 5 11 6 0 8 5 5 10 -7 11 -8 79 -2
135 1 17 -1 42 -5 57 -3 15 -3 30 2 33 5 3 5 18 1 33 -5 15 -5 36 -1 47 7 19
18 20 716 21 614 1 812 5 933 19 14 2 55 6 91 10 36 4 74 9 85 11 10 2 35 6
55 9 41 6 64 10 137 26 29 5 56 11 60 11 5 0 19 5 33 10 14 5 32 11 40 13 8 2
35 9 60 16 25 7 47 13 50 14 108 24 404 158 532 241 38 24 73 44 78 44 5 0 13
6 17 13 4 7 28 27 53 45 97 66 235 201 320 312 19 25 37 47 40 50 9 9 50 69
50 74 0 3 12 22 26 43 51 73 158 309 180 393 2 8 8 33 14 55 33 120 44 172 56
260 23 175 23 532 0 655 -3 14 -8 41 -10 60 -3 19 -8 45 -11 58 -3 12 -7 30
-9 40 -28 121 -93 314 -122 360 -8 12 -12 22 -10 22 3 0 -13 31 -35 70 -21 38
-39 72 -39 74 0 9 -122 181 -131 184 -5 2 -9 7 -9 12 0 15 -155 176 -220 229
-24 19 -48 40 -54 46 -18 18 -167 121 -211 145 -122 69 -191 106 -200 109 -5
1 -26 10 -45 18 -19 8 -53 21 -75 30 -22 8 -49 19 -60 24 -31 13 -219 70 -280
85 -73 17 -198 42 -250 50 -27 4 -52 8 -55 9 -3 1 -41 5 -85 9 -44 5 -89 11
-100 14 -11 4 -1623 8 -3582 9 l-3562 4 9 -31z"/>
<path d="M2686 6483 c-1 -2 -13 -4 -27 -6 l-24 -4 -2 -1251 c-1 -1134 -4
-1394 -17 -1487 -9 -65 -18 -112 -28 -150 -5 -22 -10 -42 -10 -45 -2 -13 -47
-129 -64 -161 -55 -104 -72 -129 -138 -193 -82 -80 -101 -96 -116 -96 -5 0
-10 -3 -10 -7 0 -19 -184 -90 -250 -97 -9 -1 -20 -4 -25 -7 -14 -7 -69 -12
-137 -13 -32 -1 -58 -5 -58 -9 0 -5 -5 -5 -11 -2 -5 4 -45 8 -87 10 -90 3
-187 19 -257 42 -27 10 -55 18 -60 19 -19 3 -119 48 -175 78 -154 83 -330 232
-456 386 -16 19 -32 37 -36 38 -5 2 -8 8 -8 12 0 5 -10 20 -23 34 l-23 25 -19
-25 c-18 -24 -27 -35 -70 -86 -11 -12 -63 -75 -115 -138 -52 -63 -105 -126
-117 -140 -12 -14 -57 -68 -101 -122 -44 -53 -85 -102 -91 -110 -6 -7 -25 -29
-41 -48 -29 -34 -38 -60 -22 -60 4 0 16 -15 27 -32 30 -52 242 -257 335 -325
47 -35 90 -66 95 -71 25 -19 186 -111 240 -136 119 -56 291 -121 377 -142 10
-2 26 -6 35 -8 10 -3 61 -14 113 -25 192 -40 252 -45 505 -45 237 0 308 5 455
31 52 9 104 17 115 19 11 1 20 3 20 4 0 1 7 3 15 5 108 22 265 77 380 132 64
31 225 126 240 143 3 3 27 23 55 45 151 121 286 294 382 490 40 81 118 291
128 345 2 12 7 30 10 40 3 10 8 29 10 42 3 13 7 34 10 48 2 14 7 41 10 60 3
19 8 42 10 50 7 27 25 183 31 280 3 41 7 2583 4 2646 0 13 -69 24 -76 13 -2
-4 -17 -4 -32 -1 -15 4 -38 6 -52 5 -49 -4 -66 -4 -138 -1 -39 2 -72 0 -72 -3
0 -4 -18 -3 -40 1 -22 4 -40 4 -40 0 0 -4 -16 -4 -35 0 -19 4 -37 4 -40 0 -3
-5 -18 -5 -34 0 -15 4 -34 4 -41 0 -7 -5 -23 -6 -34 -4 -12 3 -32 4 -46 4 -14
0 -32 0 -40 0 -8 -1 -41 1 -73 2 -31 2 -57 0 -57 -4 0 -4 -6 -5 -14 -2 -14 5
-116 11 -120 7z"/>
</g>
</svg>
